{"title":"Hermosas.Criaturas.Audio.Latino.(2013)","uid":8438100,"size":734211054,"categoryP":"video","categoryS":"movies","magnet":"?xt=urn:btih:af77d5f572f8658197c675d5d0058b02a92bd1d5&amp;dn=Hermosas.Criaturas.Audio.Latino.%282013%29&amp;tr=udp%3A%2F%2Ftracker.openbittorrent.com%3A80&amp;tr=udp%3A%2F%2Fopen.demonii.com%3A1337&amp;tr=udp%3A%2F%2Ftracker.coppersurfer.tk%3A6969&amp;tr=udp%3A%2F%2Fexodus.desync.com%3A6969","seeders":1,"leechers":0,"uploader":"JL17","files":1,"time":1367692625,"description":"General\nFormat                                   : AVI\nFormat/Info                              : Audio Video Interleave\nFile size                                : 700 MiB\nDuration                                 : 2h 3mn\nOverall bit rate                         : 791 Kbps\nMovie name                               : Beautiful.Creatures.2013.DVDRip.LATINO.XviD-Johual\nDirector                                 : WwW.DD-Peliculas.COM\nRecorded date                            : 03-05-2013\nWriting application                      : VirtualDubMod 1.5.10.2 (build 2540/release) VirtualDubMod build 2540/release\nOriginal source form/Name                : Movie\nCopyright                                : WwW.DD-Peliculas.COM\nComment                                  : By Johual\n\nVideo\nID                                       : 0\nFormat                                   : MPEG-4 Visual\nFormat profile                           : Advanced Simple@L5\nFormat settings, BVOP                    : 2\nFormat settings, QPel                    : No\nFormat settings, GMC                     : No warppoints\nFormat settings, Matrix                  : Default (H.263)\nCodec ID                                 : XVID\nCodec ID/Hint                            : XviD\nDuration                                 : 2h 3mn\nBit rate                                 : 654 Kbps\nWidth                                    : 640 pixels\nHeight                                   : 272 pixels\nDisplay aspect ratio                     : 2.35:1\nFrame rate                               : 23.976 fps\nColor space                              : YUV\nChroma subsampling                       : 4:2:0\nBit depth                                : 8 bits\nScan type                                : Progressive\nCompression mode                         : Lossy\nBits/(Pixel*Frame)                       : 0.157\nStream size                              : 579 MiB (83%)\nWriting library                          : XviD 1.2.1 (UTC 2008-12-04)\n\nAudio\nID                                       : 1\nFormat                                   : MPEG Audio\nFormat version                           : Version 1\nFormat profile                           : Layer 3\nMode                                     : Joint stereo\nMode extension                           : MS Stereo\nCodec ID                                 : 55\nCodec ID/Hint                            : MP3\nDuration                                 : 2h 3mn\nBit rate mode                            : Constant\nBit rate                                 : 128 Kbps\nChannel(s)                               : 2 channels\nSampling rate                            : 44.1 KHz\nCompression mode                         : Lossy\nStream size                              : 113 MiB (16%)\nAlignment                                : Split accross interleaves\nInterleave, duration                     : 42 ms (1.00 video frame)\nInterleave, preload duration             : 500 ms\nWriting library                          : LAME3.98.2\nLanguage                                 : Undefined\n","torrent":{"xt":"urn:btih:af77d5f572f8658197c675d5d0058b02a92bd1d5","amp;dn":"Hermosas.Criaturas.Audio.Latino.%282013%29","amp;tr":["udp%3A%2F%2Ftracker.openbittorrent.com%3A80","udp%3A%2F%2Fopen.demonii.com%3A1337","udp%3A%2F%2Ftracker.coppersurfer.tk%3A6969","udp%3A%2F%2Fexodus.desync.com%3A6969"],"infoHash":"af77d5f572f8658197c675d5d0058b02a92bd1d5","infoHashBuffer":{"type":"Buffer","data":[175,119,213,245,114,248,101,129,151,198,117,213,208,5,139,2,169,43,209,213]},"announce":[],"urlList":[]}}